<svg width="1249" height="563" viewBox="0 0 1249 563" fill="none" xmlns="http://www.w3.org/2000/svg">
<rect x="31" y="272.859" width="48" height="195" fill="url(#paint0_linear_25_114)"/>
<path fill-rule="evenodd" clip-rule="evenodd" d="M137.5 384.859C196.318 384.859 244 337.177 244 278.359C244 219.54 196.318 171.859 137.5 171.859C78.6817 171.859 31 219.54 31 278.359C31 337.177 78.6817 384.859 137.5 384.859ZM138 337.859C170.585 337.859 197 311.443 197 278.859C197 246.274 170.585 219.859 138 219.859C105.415 219.859 79 246.274 79 278.859C79 311.443 105.415 337.859 138 337.859Z" fill="url(#paint1_linear_25_114)"/>
<rect x="197" y="80.8586" width="47" height="191" fill="#D1193E"/>
<path d="M218.829 18.0409C220.029 16.4472 222.421 16.4472 223.621 18.0409L272.832 83.3875C274.321 85.3645 272.91 88.1922 270.435 88.1922H172.015C169.54 88.1922 168.129 85.3645 169.618 83.3875L218.829 18.0409Z" fill="#D1193E"/>
<path d="M57.5777 532.102C56.3723 533.599 54.09 533.592 52.8934 532.088L4.09108 470.745C2.52478 468.776 3.93179 465.87 6.44763 465.877L104.414 466.166C106.93 466.174 108.32 469.088 106.742 471.048L57.5777 532.102Z" fill="#D1193E"/>
<path d="M328.752 360.829C315.862 360.825 305.512 356.134 297.702 346.756C289.958 337.314 286.089 323.413 286.094 305.053C286.1 286.499 290.044 272.47 297.924 262.967C305.87 253.465 316.321 248.715 329.277 248.719C334.745 248.721 339.53 249.471 343.631 250.97C347.732 252.404 351.247 254.358 354.176 256.833C357.17 259.308 359.708 262.076 361.791 265.136L362.865 265.137C362.54 263.118 362.151 260.221 361.696 256.445C361.307 252.603 361.112 249.055 361.113 245.8L361.126 206.933L384.173 206.94L384.124 358.893L366.155 358.888L362.058 344.14L361.082 344.14C359.128 347.264 356.653 350.095 353.657 352.634C350.727 355.107 347.211 357.091 343.108 358.587C339.072 360.083 334.286 360.83 328.752 360.829ZM335.204 342.178C345.034 342.182 351.969 339.352 356.007 333.689C360.045 328.026 362.131 319.531 362.265 308.203L362.266 305.175C362.27 293.066 360.32 283.788 356.416 277.341C352.512 270.83 345.384 267.572 335.032 267.569C326.764 267.566 320.448 270.917 316.084 277.621C311.785 284.261 309.633 293.537 309.629 305.451C309.626 317.366 311.771 326.481 316.066 332.797C320.426 339.049 326.805 342.176 335.204 342.178ZM450.018 250.809L449.983 358.914L427.034 358.907L427.069 250.802L450.018 250.809ZM438.703 209.399C442.219 209.4 445.246 210.345 447.784 212.234C450.388 214.123 451.689 217.379 451.688 222.001C451.686 226.558 450.383 229.813 447.778 231.765C445.238 233.653 442.211 234.596 438.695 234.594C435.049 234.593 431.957 233.648 429.419 231.759C426.945 229.806 425.709 226.55 425.711 221.993C425.712 217.37 426.95 214.115 429.425 212.228C431.965 210.341 435.057 209.398 438.703 209.399ZM565.56 328.092C565.557 335.189 563.83 341.178 560.378 346.059C556.926 350.941 551.879 354.65 545.238 357.187C538.662 359.659 530.588 360.893 521.018 360.89C513.466 360.888 506.956 360.333 501.487 359.224C496.084 358.181 490.974 356.551 486.157 354.336L486.163 334.512C491.306 336.923 497.067 339.008 503.446 340.768C509.891 342.527 515.978 343.408 521.707 343.41C529.259 343.413 534.696 342.242 538.017 339.9C541.338 337.492 542.999 334.302 543 330.331C543.001 327.987 542.318 325.904 540.952 324.08C539.65 322.192 537.177 320.271 533.532 318.316C529.952 316.297 524.679 313.886 517.714 311.085C510.879 308.348 505.118 305.612 500.431 302.876C495.744 300.14 492.197 296.851 489.79 293.009C487.382 289.102 486.179 284.121 486.181 278.067C486.184 268.496 489.963 261.239 497.516 256.293C505.135 251.282 515.195 248.779 527.695 248.783C534.335 248.785 540.585 249.471 546.444 250.84C552.368 252.144 558.162 254.066 563.825 256.607L556.593 273.89C551.711 271.74 546.796 269.981 541.848 268.612C536.966 267.178 531.986 266.46 526.908 266.459C520.983 266.457 516.458 267.367 513.333 269.189C510.272 271.011 508.741 273.614 508.74 277C508.739 279.539 509.487 281.687 510.984 283.446C512.481 285.204 515.052 286.963 518.697 288.722C522.408 290.481 527.55 292.663 534.125 295.27C540.569 297.746 546.135 300.352 550.822 303.087C555.573 305.758 559.218 309.047 561.756 312.954C564.294 316.861 565.562 321.907 565.56 328.092ZM655.859 248.824C668.684 248.828 678.969 253.519 686.713 262.897C694.523 272.274 698.425 286.208 698.419 304.697C698.415 316.937 696.589 327.255 692.94 335.653C689.357 343.985 684.309 350.298 677.797 354.593C671.351 358.823 663.83 360.936 655.237 360.934C649.768 360.932 645.016 360.214 640.98 358.781C636.944 357.347 633.494 355.49 630.63 353.211C627.766 350.866 625.358 348.326 623.406 345.591L622.038 345.591C622.363 348.195 622.655 351.092 622.915 354.283C623.239 357.408 623.401 360.272 623.4 362.876L623.386 406.919L600.339 406.912L600.389 250.857L619.139 250.863L622.357 265.806L623.431 265.806C625.45 262.747 627.893 259.916 630.758 257.312C633.689 254.709 637.205 252.659 641.307 251.163C645.474 249.602 650.325 248.823 655.859 248.824ZM649.7 267.572C643.385 267.57 638.307 268.838 634.465 271.376C630.688 273.849 627.92 277.591 626.16 282.604C624.466 287.616 623.552 293.899 623.42 301.451L623.419 304.673C623.416 312.681 624.228 319.485 625.854 325.084C627.545 330.619 630.31 334.851 634.15 337.782C638.056 340.648 643.329 342.082 649.969 342.084C655.568 342.086 660.191 340.558 663.838 337.499C667.55 334.44 670.318 330.079 672.143 324.416C673.968 318.752 674.881 312.079 674.884 304.397C674.887 292.743 672.807 283.693 668.642 277.246C664.543 270.8 658.229 267.575 649.7 267.572ZM777.382 248.863C791.054 248.868 801.372 251.898 808.336 257.955C815.365 264.012 818.878 273.454 818.874 286.279L818.851 359.033L802.542 359.028L798.152 343.694L797.371 343.694C794.31 347.599 791.151 350.821 787.895 353.359C784.639 355.897 780.863 357.784 776.565 359.019C772.333 360.32 767.157 360.969 761.037 360.967C754.592 360.965 748.831 359.792 743.753 357.446C738.676 355.036 734.673 351.389 731.745 346.505C728.817 341.621 727.354 335.436 727.357 327.949C727.36 316.816 731.497 308.451 739.767 302.855C748.102 297.259 760.668 294.17 777.465 293.59L796.216 292.912L796.217 287.248C796.22 279.761 794.464 274.422 790.949 271.231C787.5 268.04 782.617 266.443 776.302 266.441C770.899 266.439 765.657 267.219 760.579 268.78C755.5 270.341 750.552 272.26 745.733 274.537L738.316 258.323C743.591 255.526 749.581 253.249 756.287 251.493C763.059 249.738 770.09 248.861 777.382 248.863ZM796.113 307.365L782.148 307.849C770.69 308.236 762.649 310.187 758.025 313.701C753.402 317.215 751.089 322.032 751.087 328.152C751.085 333.49 752.679 337.397 755.868 339.872C759.058 342.282 763.257 343.488 768.465 343.489C776.408 343.492 782.984 341.248 788.194 336.757C793.469 332.202 796.107 325.53 796.11 316.74L796.113 307.365ZM1028.44 361.053C1018.22 361.05 1009.36 359.062 1001.88 355.088C994.393 351.114 988.634 345.025 984.6 336.821C980.566 328.616 978.551 318.199 978.555 305.569C978.559 292.418 980.776 281.676 985.206 273.344C989.636 265.012 995.758 258.862 1003.57 254.893C1011.45 250.924 1020.47 248.941 1030.62 248.945C1037.07 248.947 1042.9 249.6 1048.1 250.903C1053.38 252.142 1057.84 253.673 1061.48 255.498L1054.64 273.855C1050.67 272.226 1046.6 270.857 1042.43 269.749C1038.27 268.641 1034.26 268.086 1030.42 268.085C1024.11 268.083 1018.83 269.481 1014.6 272.279C1010.43 275.078 1007.31 279.243 1005.22 284.776C1003.2 290.31 1002.19 297.178 1002.19 305.381C1002.19 313.324 1003.23 320.03 1005.31 325.499C1007.39 330.903 1010.48 335.006 1014.58 337.807C1018.68 340.542 1023.73 341.911 1029.72 341.913C1035.64 341.915 1040.95 341.201 1045.63 339.77C1050.32 338.339 1054.75 336.485 1058.92 334.208L1058.91 354.13C1054.81 356.472 1050.41 358.196 1045.73 359.301C1041.04 360.471 1035.28 361.056 1028.44 361.053ZM1117.3 207.176L1117.29 245.359C1117.28 249.331 1117.15 253.204 1116.89 256.98C1116.69 260.756 1116.47 263.686 1116.2 265.769L1117.47 265.769C1119.75 261.994 1122.55 258.903 1125.88 256.495C1129.2 254.022 1132.91 252.168 1137.01 250.932C1141.18 249.696 1145.6 249.079 1150.29 249.081C1158.56 249.083 1165.59 250.485 1171.38 253.287C1177.18 256.023 1181.6 260.289 1184.66 266.084C1187.78 271.879 1189.34 279.399 1189.34 288.644L1189.32 359.152L1166.37 359.145L1166.39 292.934C1166.39 284.535 1164.67 278.252 1161.22 274.084C1157.77 269.851 1152.43 267.734 1145.21 267.731C1138.24 267.729 1132.71 269.192 1128.61 272.121C1124.57 274.984 1121.67 279.247 1119.91 284.911C1118.15 290.509 1117.27 297.345 1117.27 305.418L1117.25 359.129L1094.3 359.121L1094.35 207.168L1117.3 207.176Z" fill="black"/>
<path d="M873.022 279.581C855.737 266.968 854.081 245.198 869.324 230.957C884.567 216.716 910.936 215.396 928.22 228.01C945.505 240.623 947.161 262.392 931.918 276.633C923.831 284.189 912.612 288.107 901.28 288.238" stroke="black" stroke-width="17"/>
<path d="M926.749 296.832C944.034 309.446 945.689 331.215 930.446 345.456C915.204 359.697 888.835 361.017 871.55 348.404C854.265 335.79 852.61 314.021 867.853 299.78C876.715 291.5 889.338 287.588 901.75 288.243" stroke="black" stroke-width="17"/>
<defs>
<linearGradient id="paint0_linear_25_114" x1="41.5" y1="472.859" x2="158.555" y2="67.3745" gradientUnits="userSpaceOnUse">
<stop offset="0.057377" stop-color="#D1193E"/>
<stop offset="0.268497" stop-color="#FDA800"/>
</linearGradient>
<linearGradient id="paint1_linear_25_114" x1="208" y1="251.859" x2="74.5" y2="332.359" gradientUnits="userSpaceOnUse">
<stop stop-color="#D1193E"/>
<stop offset="1" stop-color="#FDA800"/>
</linearGradient>
</defs>
</svg>
