<svg width="377" height="708" viewBox="0 0 377 708" fill="none" xmlns="http://www.w3.org/2000/svg">
<rect x="42.1814" y="351.057" width="65.3129" height="265.334" fill="url(#paint0_linear_25_91)"/>
<path fill-rule="evenodd" clip-rule="evenodd" d="M187.094 503.453C267.128 503.453 332.007 438.574 332.007 358.54C332.007 278.507 267.128 213.627 187.094 213.627C107.061 213.627 42.1814 278.507 42.1814 358.54C42.1814 438.574 107.061 503.453 187.094 503.453ZM187.774 439.501C232.112 439.501 268.055 403.559 268.055 359.221C268.055 314.883 232.112 278.94 187.774 278.94C143.437 278.94 107.494 314.883 107.494 359.221C107.494 403.559 143.437 439.501 187.774 439.501Z" fill="url(#paint1_linear_25_91)"/>
<rect x="268.055" y="89.8052" width="63.9522" height="259.891" fill="#D1193E"/>
<path d="M298.621 3.18229C299.821 1.58856 302.214 1.58855 303.414 3.18228L372.543 94.9792C374.032 96.9562 372.622 99.7839 370.147 99.7839H231.889C229.414 99.7839 228.003 96.9562 229.492 94.9792L298.621 3.18229Z" fill="#D1193E"/>
<path d="M77.4973 704.859C76.2919 706.356 74.0096 706.349 72.813 704.845L4.16466 618.555C2.59836 616.586 4.00537 613.68 6.52121 613.688L144.327 614.095C146.842 614.102 148.232 617.017 146.654 618.976L77.4973 704.859Z" fill="#D1193E"/>
<defs>
<linearGradient id="paint0_linear_25_91" x1="56.4686" y1="623.194" x2="215.744" y2="71.4578" gradientUnits="userSpaceOnUse">
<stop offset="0.057377" stop-color="#D1193E"/>
<stop offset="0.268497" stop-color="#FDA800"/>
</linearGradient>
<linearGradient id="paint1_linear_25_91" x1="283.023" y1="322.482" x2="101.371" y2="432.017" gradientUnits="userSpaceOnUse">
<stop stop-color="#D1193E"/>
<stop offset="1" stop-color="#FDA800"/>
</linearGradient>
</defs>
</svg>
